#!OML:ASF I:\Actors\actors\Patient Classification 2\Patient 1\Session 1\actor1.ASF
:FULLY-SPECIFIED
:DEGREES
137
root -0.655233 18.707 5.60876 2.63636 -3.4788 -1.33207
lowerback 0.0112746 1.41343 -0.517647
upperback -1.40337 1.88171 0.0633835
thorax -1.46174 0.947328 0.330211
lowerneck -3.61101 -2.39366 -1.87749
upperneck 21.0506 -3.78645 3.43437
head 7.11715 -1.68417 1.15712
rclavicle 1.35787e-014 1.07344e-014
rhumerus -16.8033 37.1477 -69.4514
rradius 133.613
rwrist -2.59062
rhand -13.8847 -21.1064
rfingers 7.12502
rthumb 12.2402 -50.7283
lclavicle 1.35787e-014 1.07344e-014
lhumerus -8.46365 -39.6975 67.7
lradius 130.426
lwrist 15.4162
lhand -9.40725 -45.2383
lfingers 7.12502
lthumb 16.5544 -15.9245
rfemur 0 0 0
rtibia 0
rfoot 0 0
rtoes 0
lfemur -4.4345 -8.34574 -13.526
ltibia 20.7805
lfoot -25.7093 18.1849
ltoes -53.7418
138
root -0.655075 18.7066 5.6142 2.6135 -3.4921 -1.31669
lowerback 0.0366976 1.46336 -0.486512
upperback -1.42642 1.94783 0.019379
thorax -1.49772 0.979792 0.26579
lowerneck -3.2758 -2.43308 -1.86938
upperneck 20.289 -3.85425 3.62869
head 6.81632 -1.7121 1.218
rclavicle 3.94176e-014 -1.35174e-014
rhumerus -14.9987 36.7247 -67.9382
rradius 134.341
rwrist -2.92945
rhand -14.0288 -21.6523
rfingers 7.12502
rthumb 12.1013 -51.2824
lclavicle 3.94176e-014 -1.35174e-014
lhumerus -6.5326 -39.2551 66.2614
lradius 130.948
lwrist 15.0607
lhand -9.62502 -44.8892
lfingers 7.12502
lthumb 16.3447 -15.5579
rfemur 0 0 0
rtibia 0
rfoot 0 0
rtoes 0
lfemur -4.38567 -8.31457 -13.5437
ltibia 20.7695
lfoot -25.7102 18.1375
ltoes -53.6556
139
root -0.654352 18.7061 5.62 2.60824 -3.47286 -1.30121
lowerback 0.0371183 1.47305 -0.462944
upperback -1.44655 1.96077 0.00698298
thorax -1.51747 0.98594 0.239399
lowerneck -2.92529 -2.4508 -1.89855
upperneck 19.4135 -3.87398 3.78088
head 6.47752 -1.72559 1.27507
rclavicle 5.32525e-015 -2.38542e-015
rhumerus -13.5492 36.294 -66.7566
rradius 134.954
rwrist -2.78064
rhand -14.1526 -21.9074
rfingers 7.12502
rthumb 11.982 -51.5444
lclavicle 5.32525e-015 -2.38542e-015
lhumerus -4.9061 -38.7391 65.0599
lradius 131.479
lwrist 14.8436
lhand -9.75477 -45.0088
lfingers 7.12502
lthumb 16.2198 -15.6673
rfemur 0 0 0
rtibia 0
rfoot 0 0
rtoes 0
lfemur -4.36725 -8.28998 -13.5656
ltibia 20.7642
lfoot -25.6691 18.1417
ltoes -53.7491
140
root -0.653579 18.7054 5.62655 2.60986 -3.44462 -1.29157
lowerback -0.0341372 1.42537 -0.489001
upperback -1.43038 1.898 0.0590627
thorax -1.46303 0.95515 0.310367
lowerneck -2.54916 -2.43615 -1.88203
upperneck 18.3822 -3.81104 3.7292
head 6.08106 -1.7135 1.26539
rclavicle 5.58383e-015 -1.23246e-014
rhumerus -12.0328 36.0461 -65.5533
rradius 135.464
rwrist -2.49393
rhand -14.6009 -21.6093
rfingers 7.12502
rthumb 11.5497 -51.2711
lclavicle 5.58383e-015 -1.23246e-014
lhumerus -3.56468 -38.088 64.0929
lradius 132.006
lwrist 14.7347
lhand -9.88293 -45.3302
lfingers 7.12502
lthumb 16.0964 -15.9787
rfemur 0 0 0
rtibia 0
rfoot 0 0
rtoes 0
lfemur -4.35372 -8.31197 -13.5878
ltibia 20.7658
lfoot -25.6323 18.2043
ltoes -53.8768
141
root -0.653496 18.7055 5.63136 2.59994 -3.44512 -1.31735
lowerback -0.0636026 1.38552 -0.504565
upperback -1.40569 1.84589 0.13898
thorax -1.42383 0.929718 0.402681
lowerneck -2.1415 -2.42926 -1.97476
upperneck 17.2482 -3.75929 3.74614
head 5.65456 -1.70979 1.29582
rclavicle 1.57211e-014 1.39149e-015
rhumerus -10.6429 35.8566 -64.4184
rradius 135.964
rwrist -2.21186
rhand -15.5647 -20.8405
rfingers 7.12502
rthumb 10.6201 -50.5521
lclavicle 1.57211e-014 1.39149e-015
lhumerus -2.35792 -37.452 63.2615
lradius 132.47
lwrist 14.7509
lhand -10.0333 -45.5542
lfingers 7.12502
lthumb 15.9516 -16.1911
rfemur 0 0 0
rtibia 0
rfoot 0 0
rtoes 0
lfemur -4.323 -8.32329 -13.5669
ltibia 20.7704
lfoot -25.6456 18.2058
ltoes -53.9022
142
root -0.653313 18.7064 5.63526 2.61913 -3.47136 -1.36573
lowerback -0.0633575 1.39072 -0.470281
upperback -1.40183 1.85368 0.188633
thorax -1.42067 0.933519 0.434256
lowerneck -1.74557 -2.41342 -2.07058
upperneck 16.0887 -3.71529 3.89384
head 5.22884 -1.70093 1.36716
rclavicle 1.4606e-014 -3.57812e-015
rhumerus -9.51461 35.6102 -63.4743
rradius 136.574
rwrist -2.23613
rhand -15.2093 -21.7235
rfingers 7.12502
rthumb 10.9629 -51.4172
lclavicle 1.4606e-014 -3.57812e-015
lhumerus -1.23013 -36.9573 62.4959
lradius 132.923
lwrist 14.8021
lhand -10.2321 -45.6044
lfingers 7.12502
lthumb 15.7601 -16.2261
rfemur 0 0 0
rtibia 0
rfoot 0 0
rtoes 0
lfemur -4.32519 -8.29524 -13.5146
ltibia 20.7784
lfoot -25.6779 18.1879
ltoes -53.9199
143
root -0.652871 18.7069 5.63974 2.6505 -3.49511 -1.40808
lowerback -0.0566037 1.42272 -0.414222
upperback -1.40068 1.89672 0.186096
thorax -1.42185 0.954333 0.399623
lowerneck -1.3821 -2.42191 -1.96335
upperneck 14.935 -3.70576 3.96775
head 4.81047 -1.70195 1.37971
rclavicle 1.92161e-014 1.41137e-014
rhumerus -8.54044 35.2931 -62.709
rradius 137.215
rwrist -2.58596
rhand -15.2863 -22.2098
rfingers 7.12502
rthumb 10.8886 -51.9075
lclavicle 1.92161e-014 1.41137e-014
lhumerus -0.155181 -36.6062 61.751
lradius 133.388
lwrist 14.7596
lhand -10.4372 -45.4562
lfingers 7.12502
lthumb 15.5626 -16.0624
rfemur 0 0 0
rtibia 0
rfoot 0 0
rtoes 0
lfemur -4.34401 -8.28831 -13.4717
ltibia 20.7895
lfoot -25.6848 18.2566
ltoes -53.9995
144
root -0.652085 18.7062 5.64406 2.64991 -3.51265 -1.41794
lowerback 0.0118619 1.46257 -0.373308
upperback -1.39952 1.94945 0.143431
thorax -1.45675 0.979945 0.33054
lowerneck -0.921023 -2.48047 -1.93571
upperneck 13.3103 -3.74854 4.10414
head 4.7202 -1.74977 1.57773
rclavicle -2.63203e-014 1.09332e-014
rhumerus -7.72421 34.9327 -62.0771
rradius 137.808
rwrist -2.95552
rhand -15.3568 -22.6866
rfingers 7.12502
rthumb 10.8206 -52.3878
lclavicle -2.63203e-014 1.09332e-014
lhumerus 0.86212 -36.348 61.0655
lradius 133.775
lwrist 14.6548
lhand -10.4993 -45.3028
lfingers 7.12502
lthumb 15.5028 -15.9043
rfemur 0 0 0
rtibia 0
rfoot 0 0
rtoes 0
lfemur -4.32586 -8.29084 -13.4694
ltibia 20.7919
lfoot -25.6699 18.2942
ltoes -53.9784
145
root -0.650815 18.7054 5.64755 2.65442 -3.5237 -1.40656
lowerback 0.101117 1.46815 -0.346545
upperback -1.44665 1.95665 0.126956
thorax -1.55373 0.983285 0.295271
lowerneck -0.359388 -2.49314 -2.28116
upperneck 12.1423 -3.77596 4.68068
head 4.2114 -1.77194 1.83422
rclavicle 2.25069e-014 1.23246e-014
rhumerus -7.08455 34.7442 -61.5751
rradius 138.311
rwrist -3.04695
rhand -15.1981 -23.1919
rfingers 7.12502
rthumb 10.9736 -52.8851
lclavicle 2.25069e-014 1.23246e-014
lhumerus 1.57904 -36.0657 60.5944
lradius 134.089
lwrist 14.583
lhand -10.5005 -45.1974
lfingers 7.12502
lthumb 15.5016 -15.7988
rfemur 0 0 0
rtibia 0
rfoot 0 0
rtoes 0
lfemur -4.31139 -8.28727 -13.487
ltibia 20.7859
lfoot -25.6997 18.2698
ltoes -53.9012
